<mxfile host="app.diagrams.net" agent="Mozilla/5.0 (Macintosh; Intel Mac OS X 10_15_7) AppleWebKit/537.36 (KHTML, like Gecko) Chrome/139.0.0.0 Safari/537.36 Edg/139.0.0.0" version="28.1.1">
  <diagram name="第 1 页" id="DTtT9IPpg4GQT4QcD7Bd">
    <mxGraphModel dx="1623" dy="1782" grid="1" gridSize="10" guides="1" tooltips="1" connect="1" arrows="1" fold="1" page="1" pageScale="1" pageWidth="827" pageHeight="1169" math="0" shadow="0">
      <root>
        <mxCell id="0" />
        <mxCell id="1" parent="0" />
        <mxCell id="SEgLIBY97gqthVeN694w-1" value="生成" style="rounded=1;whiteSpace=wrap;html=1;fillColor=#e1d5e7;strokeColor=#9673a6;" parent="1" vertex="1">
          <mxGeometry x="259" y="10" width="61" height="30" as="geometry" />
        </mxCell>
        <mxCell id="SEgLIBY97gqthVeN694w-3" value="语音播报:" style="text;html=1;align=center;verticalAlign=middle;resizable=0;points=[];autosize=1;strokeColor=none;fillColor=none;" parent="1" vertex="1">
          <mxGeometry x="159" y="10" width="90" height="30" as="geometry" />
        </mxCell>
        <mxCell id="SEgLIBY97gqthVeN694w-4" value="" style="line;strokeWidth=2;direction=south;html=1;" parent="1" vertex="1">
          <mxGeometry x="159" width="10" height="620" as="geometry" />
        </mxCell>
        <mxCell id="UcEApI665H0bDD94vmd7-1" value="语音播报未生成" style="text;html=1;align=center;verticalAlign=middle;resizable=0;points=[];autosize=1;strokeColor=#6c8ebf;fillColor=#dae8fc;" vertex="1" parent="1">
          <mxGeometry y="10" width="140" height="30" as="geometry" />
        </mxCell>
        <mxCell id="UcEApI665H0bDD94vmd7-2" value="语音播报已生成" style="text;html=1;align=center;verticalAlign=middle;resizable=0;points=[];autosize=1;strokeColor=#6c8ebf;fillColor=#dae8fc;" vertex="1" parent="1">
          <mxGeometry y="50" width="140" height="30" as="geometry" />
        </mxCell>
        <mxCell id="UcEApI665H0bDD94vmd7-3" value="语音播报:" style="text;html=1;align=center;verticalAlign=middle;resizable=0;points=[];autosize=1;strokeColor=none;fillColor=none;" vertex="1" parent="1">
          <mxGeometry x="159" y="50" width="90" height="30" as="geometry" />
        </mxCell>
        <mxCell id="UcEApI665H0bDD94vmd7-8" value="" style="verticalLabelPosition=bottom;shadow=0;dashed=0;align=center;html=1;verticalAlign=top;strokeWidth=1;shape=mxgraph.mockup.misc.loading_circle_2;pointerEvents=1" vertex="1" parent="1">
          <mxGeometry x="330" y="10" width="31" height="30" as="geometry" />
        </mxCell>
        <mxCell id="UcEApI665H0bDD94vmd7-11" value="智能配图:" style="text;html=1;align=center;verticalAlign=middle;resizable=0;points=[];autosize=1;strokeColor=none;fillColor=none;" vertex="1" parent="1">
          <mxGeometry x="159" y="91" width="90" height="30" as="geometry" />
        </mxCell>
        <mxCell id="UcEApI665H0bDD94vmd7-12" value="03:45/12:00" style="text;html=1;align=center;verticalAlign=middle;resizable=0;points=[];autosize=1;strokeColor=none;fillColor=none;" vertex="1" parent="1">
          <mxGeometry x="550" y="50" width="110" height="30" as="geometry" />
        </mxCell>
        <mxCell id="UcEApI665H0bDD94vmd7-13" value="" style="html=1;shadow=0;dashed=0;shape=mxgraph.bootstrap.rrect;rSize=5;strokeColor=none;fillColor=#f6f6f6;whiteSpace=wrap;" vertex="1" parent="1">
          <mxGeometry x="290" y="55" width="264" height="20" as="geometry" />
        </mxCell>
        <mxCell id="UcEApI665H0bDD94vmd7-14" value="" style="html=1;shadow=0;dashed=0;shape=mxgraph.bootstrap.leftButtonStriped;fillColor=#e1d5e7;whiteSpace=wrap;strokeColor=#9673a6;" vertex="1" parent="UcEApI665H0bDD94vmd7-13">
          <mxGeometry width="89.10000000000001" height="20" as="geometry" />
        </mxCell>
        <mxCell id="UcEApI665H0bDD94vmd7-16" value="本地上传" style="html=1;shadow=0;dashed=0;shape=mxgraph.bootstrap.radioButton2;labelPosition=right;verticalLabelPosition=middle;align=left;verticalAlign=middle;gradientColor=#DEDEDE;fillColor=#EDEDED;checked=1;spacing=5;checkedFill=#CC99FF;checkedStroke=#ffffff;" vertex="1" parent="1">
          <mxGeometry x="259" y="101" width="10" height="10" as="geometry" />
        </mxCell>
        <mxCell id="UcEApI665H0bDD94vmd7-24" value="AI 生成" style="html=1;shadow=0;dashed=0;shape=mxgraph.bootstrap.radioButton2;labelPosition=right;verticalLabelPosition=middle;align=left;verticalAlign=middle;gradientColor=#DEDEDE;fillColor=#EDEDED;checked=0;spacing=5;checkedFill=#0085FC;checkedStroke=#ffffff;" vertex="1" parent="1">
          <mxGeometry x="500" y="101" width="10" height="10" as="geometry" />
        </mxCell>
        <mxCell id="UcEApI665H0bDD94vmd7-30" value="" style="html=1;whiteSpace=wrap;strokeColor=#9673a6;fillColor=#e1d5e7;labelPosition=center;verticalLabelPosition=middle;verticalAlign=top;align=center;fontSize=12;outlineConnect=0;spacingTop=-6;sketch=0;shape=mxgraph.sitemap.upload;" vertex="1" parent="1">
          <mxGeometry x="259" y="140" width="101" height="60" as="geometry" />
        </mxCell>
        <mxCell id="UcEApI665H0bDD94vmd7-31" value="智能配图本地上传" style="text;html=1;align=center;verticalAlign=middle;resizable=0;points=[];autosize=1;strokeColor=#6c8ebf;fillColor=#dae8fc;" vertex="1" parent="1">
          <mxGeometry x="-10" y="91" width="150" height="30" as="geometry" />
        </mxCell>
        <mxCell id="UcEApI665H0bDD94vmd7-32" value="智能配图AI 生成" style="text;html=1;align=center;verticalAlign=middle;resizable=0;points=[];autosize=1;strokeColor=#6c8ebf;fillColor=#dae8fc;" vertex="1" parent="1">
          <mxGeometry y="210" width="140" height="30" as="geometry" />
        </mxCell>
        <mxCell id="UcEApI665H0bDD94vmd7-34" value="本地上传" style="html=1;shadow=0;dashed=0;shape=mxgraph.bootstrap.radioButton2;labelPosition=right;verticalLabelPosition=middle;align=left;verticalAlign=middle;gradientColor=#DEDEDE;fillColor=#EDEDED;checked=0;spacing=5;checkedFill=#CC99FF;checkedStroke=#ffffff;" vertex="1" parent="1">
          <mxGeometry x="259" y="220" width="10" height="10" as="geometry" />
        </mxCell>
        <mxCell id="UcEApI665H0bDD94vmd7-35" value="AI 生成" style="html=1;shadow=0;dashed=0;shape=mxgraph.bootstrap.radioButton2;labelPosition=right;verticalLabelPosition=middle;align=left;verticalAlign=middle;fillColor=#e1d5e7;checked=1;spacing=5;checkedFill=#CC99FF;checkedStroke=#ffffff;strokeColor=#9673a6;" vertex="1" parent="1">
          <mxGeometry x="500" y="220" width="10" height="10" as="geometry" />
        </mxCell>
        <mxCell id="UcEApI665H0bDD94vmd7-36" value="智能配图:" style="text;html=1;align=center;verticalAlign=middle;resizable=0;points=[];autosize=1;strokeColor=none;fillColor=none;" vertex="1" parent="1">
          <mxGeometry x="159" y="210" width="90" height="30" as="geometry" />
        </mxCell>
        <mxCell id="UcEApI665H0bDD94vmd7-37" value="风格:" style="text;html=1;align=center;verticalAlign=middle;resizable=0;points=[];autosize=1;strokeColor=none;fillColor=none;" vertex="1" parent="1">
          <mxGeometry x="234" y="251" width="60" height="30" as="geometry" />
        </mxCell>
        <mxCell id="UcEApI665H0bDD94vmd7-40" value="摄影" style="html=1;shadow=0;dashed=0;shape=mxgraph.bootstrap.radioButton2;labelPosition=right;verticalLabelPosition=middle;align=left;verticalAlign=middle;gradientColor=#DEDEDE;fillColor=#EDEDED;checked=0;spacing=5;checkedFill=#0085FC;checkedStroke=#ffffff;" vertex="1" parent="1">
          <mxGeometry x="294" y="261" width="10" height="10" as="geometry" />
        </mxCell>
        <mxCell id="UcEApI665H0bDD94vmd7-41" value="人像写真" style="html=1;shadow=0;dashed=0;shape=mxgraph.bootstrap.radioButton2;labelPosition=right;verticalLabelPosition=middle;align=left;verticalAlign=middle;gradientColor=#DEDEDE;fillColor=#EDEDED;checked=0;spacing=5;checkedFill=#0085FC;checkedStroke=#ffffff;" vertex="1" parent="1">
          <mxGeometry x="351" y="261" width="10" height="10" as="geometry" />
        </mxCell>
        <mxCell id="UcEApI665H0bDD94vmd7-46" value="中国画" style="html=1;shadow=0;dashed=0;shape=mxgraph.bootstrap.radioButton2;labelPosition=right;verticalLabelPosition=middle;align=left;verticalAlign=middle;gradientColor=#DEDEDE;fillColor=#EDEDED;checked=0;spacing=5;checkedFill=#0085FC;checkedStroke=#ffffff;" vertex="1" parent="1">
          <mxGeometry x="440" y="261" width="10" height="10" as="geometry" />
        </mxCell>
        <mxCell id="UcEApI665H0bDD94vmd7-47" value="3D 卡通" style="html=1;shadow=0;dashed=0;shape=mxgraph.bootstrap.radioButton2;labelPosition=right;verticalLabelPosition=middle;align=left;verticalAlign=middle;gradientColor=#DEDEDE;fillColor=#EDEDED;checked=0;spacing=5;checkedFill=#0085FC;checkedStroke=#ffffff;" vertex="1" parent="1">
          <mxGeometry x="510" y="261" width="10" height="10" as="geometry" />
        </mxCell>
        <mxCell id="UcEApI665H0bDD94vmd7-48" value="动画" style="html=1;shadow=0;dashed=0;shape=mxgraph.bootstrap.radioButton2;labelPosition=right;verticalLabelPosition=middle;align=left;verticalAlign=middle;gradientColor=#DEDEDE;fillColor=#EDEDED;checked=0;spacing=5;checkedFill=#0085FC;checkedStroke=#ffffff;" vertex="1" parent="1">
          <mxGeometry x="590" y="261" width="10" height="10" as="geometry" />
        </mxCell>
        <mxCell id="UcEApI665H0bDD94vmd7-49" value="油画" style="html=1;shadow=0;dashed=0;shape=mxgraph.bootstrap.radioButton2;labelPosition=right;verticalLabelPosition=middle;align=left;verticalAlign=middle;gradientColor=#DEDEDE;fillColor=#EDEDED;checked=0;spacing=5;checkedFill=#0085FC;checkedStroke=#ffffff;" vertex="1" parent="1">
          <mxGeometry x="650" y="261" width="10" height="10" as="geometry" />
        </mxCell>
        <mxCell id="UcEApI665H0bDD94vmd7-50" value="水彩" style="html=1;shadow=0;dashed=0;shape=mxgraph.bootstrap.radioButton2;labelPosition=right;verticalLabelPosition=middle;align=left;verticalAlign=middle;gradientColor=#DEDEDE;fillColor=#EDEDED;checked=0;spacing=5;checkedFill=#0085FC;checkedStroke=#ffffff;" vertex="1" parent="1">
          <mxGeometry x="294" y="290" width="10" height="10" as="geometry" />
        </mxCell>
        <mxCell id="UcEApI665H0bDD94vmd7-51" value="素描" style="html=1;shadow=0;dashed=0;shape=mxgraph.bootstrap.radioButton2;labelPosition=right;verticalLabelPosition=middle;align=left;verticalAlign=middle;gradientColor=#DEDEDE;fillColor=#EDEDED;checked=0;spacing=5;checkedFill=#0085FC;checkedStroke=#ffffff;" vertex="1" parent="1">
          <mxGeometry x="351" y="290" width="10" height="10" as="geometry" />
        </mxCell>
        <mxCell id="UcEApI665H0bDD94vmd7-55" value="扁平插画" style="html=1;shadow=0;dashed=0;shape=mxgraph.bootstrap.radioButton2;labelPosition=right;verticalLabelPosition=middle;align=left;verticalAlign=middle;gradientColor=#DEDEDE;fillColor=#EDEDED;checked=0;spacing=5;checkedFill=#0085FC;checkedStroke=#ffffff;" vertex="1" parent="1">
          <mxGeometry x="414" y="290" width="10" height="10" as="geometry" />
        </mxCell>
        <mxCell id="UcEApI665H0bDD94vmd7-56" value="自动" style="html=1;shadow=0;dashed=0;shape=mxgraph.bootstrap.radioButton2;labelPosition=right;verticalLabelPosition=middle;align=left;verticalAlign=middle;gradientColor=#DEDEDE;fillColor=#EDEDED;checked=1;spacing=5;checkedFill=#CC99FF;checkedStroke=#ffffff;" vertex="1" parent="1">
          <mxGeometry x="500" y="290" width="10" height="10" as="geometry" />
        </mxCell>
        <mxCell id="UcEApI665H0bDD94vmd7-57" value="比例:" style="text;html=1;align=center;verticalAlign=middle;resizable=0;points=[];autosize=1;strokeColor=none;fillColor=none;" vertex="1" parent="1">
          <mxGeometry x="234" y="320" width="60" height="30" as="geometry" />
        </mxCell>
        <mxCell id="UcEApI665H0bDD94vmd7-58" value="" style="sketch=0;html=1;aspect=fixed;strokeColor=#9673a6;shadow=0;fillColor=#e1d5e7;verticalAlign=top;labelPosition=center;verticalLabelPosition=bottom;shape=mxgraph.gcp2.play_start;" vertex="1" parent="1">
          <mxGeometry x="259" y="55" width="20" height="20" as="geometry" />
        </mxCell>
        <mxCell id="UcEApI665H0bDD94vmd7-60" value="" style="rounded=0;whiteSpace=wrap;html=1;fillColor=#e1d5e7;strokeColor=#9673a6;gradientColor=none;" vertex="1" parent="1">
          <mxGeometry x="294" y="325" width="46" height="20" as="geometry" />
        </mxCell>
        <mxCell id="UcEApI665H0bDD94vmd7-61" value="16:9" style="text;html=1;align=center;verticalAlign=middle;resizable=0;points=[];autosize=1;strokeColor=none;fillColor=none;" vertex="1" parent="1">
          <mxGeometry x="290" y="365" width="50" height="30" as="geometry" />
        </mxCell>
        <mxCell id="UcEApI665H0bDD94vmd7-62" value="" style="rounded=0;whiteSpace=wrap;html=1;" vertex="1" parent="1">
          <mxGeometry x="520" y="315" width="18" height="40" as="geometry" />
        </mxCell>
        <mxCell id="UcEApI665H0bDD94vmd7-63" value="" style="rounded=0;whiteSpace=wrap;html=1;" vertex="1" parent="1">
          <mxGeometry x="359" y="325" width="41" height="25" as="geometry" />
        </mxCell>
        <mxCell id="UcEApI665H0bDD94vmd7-64" value="4:3" style="text;html=1;align=center;verticalAlign=middle;resizable=0;points=[];autosize=1;strokeColor=none;fillColor=none;" vertex="1" parent="1">
          <mxGeometry x="360" y="365" width="50" height="30" as="geometry" />
        </mxCell>
        <mxCell id="UcEApI665H0bDD94vmd7-65" value="" style="whiteSpace=wrap;html=1;aspect=fixed;" vertex="1" parent="1">
          <mxGeometry x="424" y="325" width="25" height="25" as="geometry" />
        </mxCell>
        <mxCell id="UcEApI665H0bDD94vmd7-66" value="1:1" style="text;html=1;align=center;verticalAlign=middle;resizable=0;points=[];autosize=1;strokeColor=none;fillColor=none;" vertex="1" parent="1">
          <mxGeometry x="414" y="365" width="50" height="30" as="geometry" />
        </mxCell>
        <mxCell id="UcEApI665H0bDD94vmd7-67" value="" style="rounded=0;whiteSpace=wrap;html=1;direction=south;" vertex="1" parent="1">
          <mxGeometry x="470" y="317" width="25" height="41" as="geometry" />
        </mxCell>
        <mxCell id="UcEApI665H0bDD94vmd7-68" value="3:4" style="text;html=1;align=center;verticalAlign=middle;resizable=0;points=[];autosize=1;strokeColor=none;fillColor=none;" vertex="1" parent="1">
          <mxGeometry x="460" y="365" width="50" height="30" as="geometry" />
        </mxCell>
        <mxCell id="UcEApI665H0bDD94vmd7-69" value="9:16" style="text;html=1;align=center;verticalAlign=middle;resizable=0;points=[];autosize=1;strokeColor=none;fillColor=none;" vertex="1" parent="1">
          <mxGeometry x="504" y="365" width="50" height="30" as="geometry" />
        </mxCell>
      </root>
    </mxGraphModel>
  </diagram>
</mxfile>
